<mxfile host="app.diagrams.net" modified="2023-07-06T12:46:32.818Z" agent="Mozilla/5.0 (Macintosh; Intel Mac OS X 10_15_7) AppleWebKit/537.36 (KHTML, like Gecko) Chrome/114.0.0.0 Safari/537.36" version="21.6.1" etag="Vn4reUqQ2AJl7Tbrlqez" type="github">
  <diagram name="Page-1" id="ZkNStZMu7eRONH1pi4de">
    <mxGraphModel>
      <root>
        <mxCell id="0" />
        <mxCell id="1" parent="0" />
      </root>
    </mxGraphModel>
  </diagram>
</mxfile>
